<?xml version="1.0" encoding="iso-8859-1"?>
<!-- Generator: Adobe Illustrator 26.1.0, SVG Export Plug-In . SVG Version: 6.00 Build 0)  -->
<svg version="1.1" id="Layer_1" xmlns="http://www.w3.org/2000/svg" xmlns:xlink="http://www.w3.org/1999/xlink" x="0px" y="0px"
	 viewBox="0 0 50 50" style="enable-background:new 0 0 50 50;" xml:space="preserve">
<g>
	<g>
		<path style="fill:#DF4BB1;" d="M12.053,6.792c1.287,0,1.289-2,0-2C10.766,4.792,10.764,6.792,12.053,6.792L12.053,6.792z"/>
	</g>
</g>
<path style="fill:#DF4BB1;" d="M10.536,12.244c-0.292-0.94-1.023-1.834-1.621-2.597C8.795,9.495,8.671,9.268,8.529,9.14
	C8.508,9.106,8.489,9.071,8.47,9.037C8.733,8.828,9.076,8.7,9.362,8.525c1.094-0.673,0.091-2.404-1.009-1.727
	C7.761,7.162,7.097,7.411,6.707,8.023c-0.439,0.689-0.285,1.557,0.148,2.203c0.456,0.681,0.999,1.288,1.429,1.991
	c0.066,0.107,0.18,0.425,0.294,0.52c-0.149,0.036-0.288,0.072-0.449,0.075c-0.729,0.016-1.436-0.098-2.118,0.248
	c-0.72,0.365-1.159,1.104-1.112,1.918c0.05,0.86,0.525,1.618,1.023,2.293c0.092,0.125,0.199,0.24,0.296,0.362
	c-0.337-0.073-0.673-0.148-1.015-0.196c-0.883-0.123-2.138-0.222-2.542,0.794c-0.347,0.873,0.44,1.864,0.943,2.518
	c0.576,0.749,1.257,1.367,2.037,1.9c1.065,0.728,2.067-1.004,1.009-1.727c-0.458-0.313-0.866-0.681-1.234-1.098
	c-0.107-0.121-0.197-0.253-0.292-0.382c0.072,0.013,0.145,0.02,0.217,0.034c0.522,0.103,1.037,0.245,1.56,0.344
	c0.935,0.176,2.391,0.276,2.437-1.085c0.034-1.003-1.035-1.648-1.592-2.35c-0.276-0.347-0.582-0.741-0.753-1.154
	c-0.145-0.348-0.158-0.405,0.188-0.44c0.851-0.085,1.616,0.116,2.421-0.308C10.435,14.044,10.818,13.149,10.536,12.244z
	 M8.596,12.757c0.001,0,0.001,0.002,0.002,0.002C8.868,12.917,8.5,12.836,8.596,12.757z"/>
<g>
	<path style="fill:#99C93C;" d="M41.866,26.087c-1.852-1.52-4.057-2.581-6.389-3.121c-1.148-0.266-2.299-0.376-3.454-0.401
		c2.863-2.624,5.474-5.501,7.602-8.809c1.355-2.107,2.476-4.355,3.322-6.714c0.169-0.471-0.409-0.819-0.797-0.612
		c-6.314,3.352-11.889,7.972-16.41,13.488c-0.024-3.198-0.422-6.386-1.282-9.471c-0.035-0.186-0.064-0.374-0.101-0.56
		c-0.233-1.154-0.498-2.377-1.057-3.425c-1-1.878-3.314-2.171-5.128-1.386c-1.976,0.855-3.564,2.615-4.657,4.429
		c-0.028,0.047-0.047,0.098-0.075,0.145c-0.1,0.059-0.189,0.143-0.241,0.273c-0.083,0.21-0.151,0.426-0.231,0.637
		c-0.738,1.495-1.221,3.098-1.495,4.744c-1.245,4.925-1.647,10.062-1.162,15.122c0.324,3.373,1.017,6.709,2.105,9.919
		c0.501,1.476,1.025,3.041,1.937,4.322c0.659,0.925,2.141,2.519,3.38,1.62c0.545-0.396,0.852-1.173,1.173-1.74
		c0.431-0.761,0.844-1.532,1.24-2.312c0.746-1.472,1.427-2.977,2.043-4.509c0.438-1.09,0.827-2.199,1.191-3.316
		c3.854,5.149,8.011,10.654,14.856,9.687c3.735-0.528,7.968-3.139,8.55-7.166C47.367,32.895,44.896,28.574,41.866,26.087z"/>
</g>
<g>
	<g>
		<path style="fill:#FFFFFF;" d="M17.833,7.572c-2.508,3.237-4.041,6.969-4.521,11.036c-0.092,0.782,0.756,1.533,1.5,1.5
			c0.892-0.04,1.401-0.662,1.5-1.5c0.024-0.189,0.028-0.226,0.011-0.109c0.016-0.113,0.033-0.225,0.05-0.337
			c0.036-0.225,0.075-0.449,0.118-0.672c0.076-0.391,0.164-0.779,0.263-1.164c0.22-0.853,0.496-1.692,0.827-2.509
			c0.223-0.55,0.666-1.442,1.04-2.094c0.212-0.37,0.436-0.733,0.671-1.088c0.194-0.293,0.534-0.776,0.662-0.942
			c0.496-0.64,0.624-1.498,0-2.121C19.437,7.055,18.332,6.928,17.833,7.572L17.833,7.572z"/>
	</g>
</g>
<g>
	<g>
		<path style="fill:#399BDF;" d="M40.641,19.468c0.012,0.904-0.041,1.807-0.159,2.704c0.012-0.089,0.024-0.177,0.036-0.266
			c-0.016,0.119-0.033,0.239-0.051,0.358c-0.042,0.276-0.046,0.52,0.101,0.771c0.121,0.207,0.359,0.405,0.598,0.46
			c0.256,0.058,0.543,0.046,0.771-0.101c0.204-0.131,0.421-0.347,0.46-0.598c0.167-1.103,0.261-2.211,0.245-3.327
			c-0.007-0.523-0.455-1.024-1-1C41.105,18.492,40.633,18.908,40.641,19.468L40.641,19.468z"/>
	</g>
</g>
<g>
	<g>
		<path style="fill:#399BDF;" d="M44.922,24.566c0.456-0.822,0.971-1.609,1.542-2.355c0.147-0.191,0.161-0.551,0.101-0.771
			c-0.064-0.232-0.243-0.483-0.46-0.598c-0.232-0.123-0.513-0.184-0.771-0.101c-0.08,0.034-0.159,0.067-0.239,0.101
			c-0.15,0.089-0.27,0.208-0.359,0.359c-0.571,0.746-1.087,1.533-1.542,2.355c-0.128,0.23-0.171,0.515-0.101,0.771
			c0.064,0.232,0.243,0.483,0.46,0.598C44.024,25.173,44.651,25.054,44.922,24.566L44.922,24.566z"/>
	</g>
</g>
<g>
	<g>
		<path style="fill:#399BDF;" d="M46.043,27.234c1.287,0,1.289-2,0-2C44.756,25.234,44.754,27.234,46.043,27.234L46.043,27.234z"/>
	</g>
</g>
<g>
	<g>
		<path style="fill:#231F20;" d="M27.466,23.653c1.528-0.364,3.092-0.499,4.661-0.415c0.643,0.035,0.641-0.966,0-1
			c-1.654-0.089-3.316,0.067-4.927,0.451C26.574,22.838,26.839,23.802,27.466,23.653L27.466,23.653z"/>
	</g>
</g>
<g>
	<g>
		<path style="fill:#231F20;" d="M20.702,30.143c0.566,1.653,1.439,3.171,2.581,4.493c0.177,0.204,0.526,0.181,0.707,0
			c0.203-0.203,0.177-0.502,0-0.707c-1.024-1.186-1.816-2.57-2.324-4.052c-0.087-0.255-0.343-0.424-0.615-0.349
			C20.803,29.596,20.614,29.886,20.702,30.143L20.702,30.143z"/>
	</g>
</g>
</svg>